<svg width="130" height="110" viewBox="0 0 130 110" fill="none" xmlns="http://www.w3.org/2000/svg">
<path d="M111.569 55C111.569 85.0908 86.7141 109.5 56.0345 109.5C25.3548 109.5 0.5 85.0908 0.5 55C0.5 24.9092 25.3548 0.5 56.0345 0.5C86.7141 0.5 111.569 24.9092 111.569 55Z" stroke="black"/>
<path d="M28.9141 60.5508C28.9141 60.3519 28.9754 60.1847 29.0981 60.0493C29.2251 59.9097 29.4071 59.8398 29.644 59.8398C29.881 59.8398 30.0609 59.9097 30.1836 60.0493C30.3105 60.1847 30.374 60.3519 30.374 60.5508C30.374 60.7454 30.3105 60.9105 30.1836 61.0459C30.0609 61.1813 29.881 61.249 29.644 61.249C29.4071 61.249 29.2251 61.1813 29.0981 61.0459C28.9754 60.9105 28.9141 60.7454 28.9141 60.5508ZM36.1123 51.9307H37.2993L40.3271 59.4653L43.3486 51.9307H44.542L40.7842 61.1729H39.8574L36.1123 51.9307ZM35.7251 51.9307H36.7725L36.9438 57.5674V61.1729H35.7251V51.9307ZM43.8755 51.9307H44.9229V61.1729H43.7041V57.5674L43.8755 51.9307ZM48.3887 51.9307V61.1729H47.1636V51.9307H48.3887ZM57.7261 51.9307V61.1729H56.4946L51.8418 54.0444V61.1729H50.6167V51.9307H51.8418L56.5137 59.0781V51.9307H57.7261ZM61.2109 51.9307V61.1729H59.9858V51.9307H61.2109ZM63.8262 51.9307H65.0132L68.041 59.4653L71.0625 51.9307H72.2559L68.498 61.1729H67.5713L63.8262 51.9307ZM63.439 51.9307H64.4863L64.6577 57.5674V61.1729H63.439V51.9307ZM71.5894 51.9307H72.6367V61.1729H71.418V57.5674L71.5894 51.9307ZM78.3242 52.7495L75.2646 61.1729H74.0142L77.5371 51.9307H78.3433L78.3242 52.7495ZM80.8887 61.1729L77.8228 52.7495L77.8037 51.9307H78.6099L82.1455 61.1729H80.8887ZM80.73 57.7515V58.7544H75.5376V57.7515H80.73ZM88.9883 60.1763V61.1729H84.3672V60.1763H88.9883ZM84.6084 51.9307V61.1729H83.3833V51.9307H84.6084Z" fill="black"/>
<line x1="6.72415" y1="67.7" x2="130" y2="67.7" stroke="black"/>
</svg>
